:SAMPLES-PER-SECOND 30
:FULLY-SPECIFIED
:DEGREES
125
root  57.1969 30.7783 0.504837 -177.174 -87.942 -178.46
RightUpLeg  -64.9595 -20.375 13.3913
RightLeg  66.4183 -9.09793 -22.3383
RightFoot  -12.8677 -0.186518 -7.48294
RightToes  0.000482159 0.542163 -0.142577
Spine  56.5767 -2.38556 5.67017
Spine1  5.32358 -2.03141 5.31226
HEad  -19.5184 -5.53558 1.80687
LeftShoulder1  8.59973 -15.5654 -38.8995
LeftArm  -5.52489 2.03356 -35.5016
LeftForeArm  -157.851 -77.6538 -142.201
LeftHand  -0.25398 0.0180481 5.50724
RightShoulder  3.38239 7.75606 23.8685
RightArm  -7.77541 0.344583 46.6179
RightForeArm  153.04 76.972 135.295
RightHand  -0.565245 -2.20366 -20.2077
LeftUpLeg  -64.2649 3.62586 -2.9608
LeftLeg  60.6019 2.60928 5.59768
LeftFoot  -6.05958 0.0212193 0.330527
LeftToes  1.06246e-005 4.65855e-005 -8.18503e-006
126
root  57.9507 29.8461 0.458583 176.211 -88.2886 -174.4
RightUpLeg  -65.8527 -20.2607 13.3327
RightLeg  69.2401 -8.29798 -23.6501
RightFoot  -12.8025 -0.197786 -8.73724
RightToes  0.000482159 0.542163 -0.142577
Spine  57.568 -2.09448 5.33581
Spine1  5.24346 -1.87876 5.32969
HEad  -19.9785 -4.9344 1.20162
LeftShoulder1  8.5438 -15.5378 -38.6814
LeftArm  -5.00087 2.99119 -35.1805
LeftForeArm  -147.925 -74.9137 -150.481
LeftHand  -0.25398 0.0180481 5.50724
RightShoulder  3.32459 7.69894 23.4866
RightArm  -8.18634 -0.424398 46.419
RightForeArm  158.441 75.3311 141.43
RightHand  -0.673175 -1.73446 -21.067
LeftUpLeg  -65.202 3.72065 -2.93855
LeftLeg  63.5369 2.37255 5.83837
LeftFoot  -6.14454 0.00418133 0.721975
LeftToes  1.06246e-005 4.65855e-005 -8.18503e-006
127
root  58.6967 28.8867 0.442137 160.911 -88.7083 -161.963
RightUpLeg  -66.4539 -20.5226 13.2274
RightLeg  71.9335 -7.35525 -24.7035
RightFoot  -12.5141 -0.180208 -9.33332
RightToes  0.000482159 0.542163 -0.142577
Spine  58.0397 -2.20023 5.25677
Spine1  5.44797 -1.99501 5.0602
HEad  -20.1008 -4.23106 0.794774
LeftShoulder1  8.43877 -15.4307 -38.3936
LeftArm  -4.83299 3.49922 -34.7774
LeftForeArm  -143.783 -73.123 -154.143
LeftHand  -0.25398 0.0180481 5.50724
RightShoulder  3.30295 7.76218 23.1081
RightArm  -7.99819 -0.732595 46.1822
RightForeArm  159.608 74.5615 143.562
RightHand  -0.8527 -0.88748 -21.7555
LeftUpLeg  -65.8473 3.60513 -2.78515
LeftLeg  66.3887 2.14492 6.11424
LeftFoot  -5.94825 -0.00895667 0.95194
LeftToes  1.06246e-005 4.65855e-005 -8.18503e-006
128
root  59.4045 27.8761 0.442871 140.85 -88.9818 -145.17
RightUpLeg  -66.6624 -20.8489 12.7663
RightLeg  74.7146 -6.22582 -25.5718
RightFoot  -12.1573 -0.147819 -9.21841
RightToes  0.000482159 0.542163 -0.142577
Spine  58.0381 -2.44858 5.20156
Spine1  5.73253 -2.09502 4.41603
HEad  -20.0981 -3.57434 0.529584
LeftShoulder1  8.32175 -15.3123 -38.0667
LeftArm  -4.9763 3.67981 -34.588
LeftForeArm  -142.495 -72.3033 -155.521
LeftHand  -0.25398 0.0180481 5.50724
RightShoulder  3.31133 7.91395 22.7733
RightArm  -7.48469 -0.993232 45.8667
RightForeArm  158.59 74.3524 143.873
RightHand  -1.20984 0.59139 -23.3098
LeftUpLeg  -66.1465 3.4289 -2.66831
LeftLeg  69.2511 1.93392 6.49635
LeftFoot  -5.5056 -0.037577 1.3831
LeftToes  1.06246e-005 4.65855e-005 -8.18503e-006
129
root  60.0084 26.8929 0.441271 122.57 -89.0423 -130.385
RightUpLeg  -66.3536 -21.0795 12.0511
RightLeg  77.4123 -5.05019 -26.3604
RightFoot  -11.9577 -0.128089 -8.82059
RightToes  0.000482159 0.542163 -0.142577
Spine  57.6097 -2.52185 5.06867
Spine1  6.00607 -2.08358 3.88061
HEad  -20.2995 -2.94879 0.226331
LeftShoulder1  8.26894 -15.1878 -38.0792
LeftArm  -5.23247 3.22426 -34.4882
LeftForeArm  -142.951 -72.5207 -155.157
LeftHand  -0.25398 0.0180481 5.50724
RightShoulder  3.32828 8.03155 22.6158
RightArm  -7.0353 -0.899995 45.4221
RightForeArm  155.233 74.7709 142.258
RightHand  -1.67137 2.21463 -25.3933
LeftUpLeg  -65.9835 3.42176 -2.59826
LeftLeg  71.865 1.70348 6.8055
LeftFoot  -4.52743 -0.0962443 2.0678
LeftToes  1.06246e-005 4.65855e-005 -8.18503e-006
130
root  60.4758 26.1308 0.434332 106.868 -88.8946 -117.912
RightUpLeg  -65.4667 -21.3502 11.4445
RightLeg  79.4047 -4.14149 -26.9554
RightFoot  -11.9605 -0.125878 -8.36816
RightToes  0.000482159 0.542163 -0.142577
Spine  56.6506 -2.42812 5.0176
Spine1  6.51501 -2.06336 3.70395
HEad  -20.7903 -2.30696 -0.0520959
LeftShoulder1  8.32329 -15.0184 -38.7493
LeftArm  -5.53369 1.56276 -34.1572
LeftForeArm  -146.675 -74.2031 -151.947
LeftHand  -0.25398 0.0180481 5.50724
RightShoulder  3.39938 8.09953 23.0855
RightArm  -6.86727 0.324766 44.7625
RightForeArm  147.317 76.3228 136.178
RightHand  -2.01172 3.29037 -26.7678
LeftUpLeg  -65.2263 3.57923 -2.36937
LeftLeg  73.5671 1.48 6.77718
LeftFoot  -2.8498 -0.164156 2.45188
LeftToes  1.06246e-005 4.65855e-005 -8.18503e-006
131
root  60.841 25.7269 0.432669 94.9094 -88.6064 -108.618
RightUpLeg  -63.9535 -21.7786 10.9889
RightLeg  80.2574 -3.73797 -27.2068
RightFoot  -12.0133 -0.126908 -7.81574
RightToes  0.000482159 0.542163 -0.142577
Spine  55.2666 -2.3557 5.12233
Spine1  7.19504 -2.08133 3.62372
HEad  -21.1631 -1.64367 -0.231113
LeftShoulder1  8.43572 -14.7941 -39.8597
LeftArm  -5.8545 -1.17422 -33.6838
LeftForeArm  -157.213 -77.5134 -142.58
LeftHand  -0.25398 0.0180481 5.50724
RightShoulder  3.6091 8.25757 24.5447
RightArm  -7.05626 2.58693 43.8502
RightForeArm  130.091 78.7935 120.678
RightHand  -2.14571 3.76785 -27.0488
LeftUpLeg  -63.795 3.78421 -1.97369
LeftLeg  73.9614 1.35537 6.48178
LeftFoot  -0.844257 -0.209784 2.34358
LeftToes  1.06246e-005 4.65855e-005 -8.18503e-006
132
root  61.1458 25.6212 0.446512 86.2253 -88.3218 -102.229
RightUpLeg  -61.8269 -22.2997 10.4021
RightLeg  80.1999 -3.76036 -27.1689
RightFoot  -11.963 -0.119506 -7.13388
RightToes  0.000482159 0.542163 -0.142577
Spine  53.9072 -2.37734 5.28704
Spine1  7.36485 -2.0714 3.4236
HEad  -20.8521 -0.958497 -0.537686
LeftShoulder1  8.51712 -14.5688 -40.828
LeftArm  -5.98014 -3.98337 -33.5454
LeftForeArm  176.703 -81.2722 -117.747
LeftHand  -0.25398 0.0180481 5.50724
RightShoulder  3.94115 8.5729 26.579
RightArm  -7.47684 4.80314 42.944
RightForeArm  98.2682 80.2547 90.2421
RightHand  -2.24872 4.21785 -27.0288
LeftUpLeg  -61.7599 3.97718 -1.64435
LeftLeg  73.426 1.3416 6.18288
LeftFoot  0.870707 -0.258569 2.36255
LeftToes  1.06246e-005 4.65855e-005 -8.18503e-006
